<?xml version="1.0" encoding="utf-8" standalone="no"?>
<!DOCTYPE svg PUBLIC "-//W3C//DTD SVG 1.1//EN"
  "http://www.w3.org/Graphics/SVG/1.1/DTD/svg11.dtd">
<svg xmlns:xlink="http://www.w3.org/1999/xlink" width="257.94pt" height="117.970312pt" viewBox="0 0 257.94 117.970312" xmlns="http://www.w3.org/2000/svg" version="1.1">
 <metadata>
  <rdf:RDF xmlns:dc="http://purl.org/dc/elements/1.1/" xmlns:cc="http://creativecommons.org/ns#" xmlns:rdf="http://www.w3.org/1999/02/22-rdf-syntax-ns#">
   <cc:Work>
    <dc:type rdf:resource="http://purl.org/dc/dcmitype/StillImage"/>
    <dc:format>image/svg+xml</dc:format>
    <dc:creator>
     <cc:Agent>
      <dc:title>Matplotlib v3.9.4, https://matplotlib.org/</dc:title>
     </cc:Agent>
    </dc:creator>
   </cc:Work>
  </rdf:RDF>
 </metadata>
 <defs>
  <style type="text/css">*{stroke-linejoin: round; stroke-linecap: butt}</style>
 </defs>
 <g id="figure_1">
  <g id="patch_1">
   <path d="M 0 117.970312
L 257.94 117.970312
L 257.94 0
L 0 0
z
" style="fill: #ffffff"/>
  </g>
  <g id="text_1">
   <!-- $H_i\sim\mathrm{Bernoulli}(r_i)$ -->
   <g style="fill: #111827" transform="translate(56.61 19.437187) scale(0.18 -0.18)">
    <defs>
     <path id="DejaVuSans-Oblique-48" d="M 1081 4666
L 1716 4666
L 1344 2753
L 3634 2753
L 4006 4666
L 4641 4666
L 3731 0
L 3097 0
L 3531 2222
L 1241 2222
L 806 0
L 172 0
L 1081 4666
z
" transform="scale(0.015625)"/>
     <path id="DejaVuSans-Oblique-69" d="M 1172 4863
L 1747 4863
L 1606 4134
L 1031 4134
L 1172 4863
z
M 909 3500
L 1484 3500
L 800 0
L 225 0
L 909 3500
z
" transform="scale(0.015625)"/>
     <path id="DejaVuSans-223c" d="M 4684 2556
L 4684 1997
Q 4356 1753 4076 1645
Q 3797 1538 3494 1538
Q 3150 1538 2694 1722
Q 2663 1734 2641 1744
Q 2622 1750 2575 1769
Q 2091 1959 1797 1959
Q 1522 1959 1253 1840
Q 984 1722 678 1459
L 678 2019
Q 1006 2263 1286 2370
Q 1566 2478 1869 2478
Q 2213 2478 2672 2294
Q 2706 2278 2722 2272
Q 2741 2266 2788 2247
Q 3272 2056 3566 2056
Q 3834 2056 4098 2173
Q 4363 2291 4684 2556
z
" transform="scale(0.015625)"/>
     <path id="DejaVuSans-42" d="M 1259 2228
L 1259 519
L 2272 519
Q 2781 519 3026 730
Q 3272 941 3272 1375
Q 3272 1813 3026 2020
Q 2781 2228 2272 2228
L 1259 2228
z
M 1259 4147
L 1259 2741
L 2194 2741
Q 2656 2741 2882 2914
Q 3109 3088 3109 3444
Q 3109 3797 2882 3972
Q 2656 4147 2194 4147
L 1259 4147
z
M 628 4666
L 2241 4666
Q 2963 4666 3353 4366
Q 3744 4066 3744 3513
Q 3744 3084 3544 2831
Q 3344 2578 2956 2516
Q 3422 2416 3680 2098
Q 3938 1781 3938 1306
Q 3938 681 3513 340
Q 3088 0 2303 0
L 628 0
L 628 4666
z
" transform="scale(0.015625)"/>
     <path id="DejaVuSans-65" d="M 3597 1894
L 3597 1613
L 953 1613
Q 991 1019 1311 708
Q 1631 397 2203 397
Q 2534 397 2845 478
Q 3156 559 3463 722
L 3463 178
Q 3153 47 2828 -22
Q 2503 -91 2169 -91
Q 1331 -91 842 396
Q 353 884 353 1716
Q 353 2575 817 3079
Q 1281 3584 2069 3584
Q 2775 3584 3186 3129
Q 3597 2675 3597 1894
z
M 3022 2063
Q 3016 2534 2758 2815
Q 2500 3097 2075 3097
Q 1594 3097 1305 2825
Q 1016 2553 972 2059
L 3022 2063
z
" transform="scale(0.015625)"/>
     <path id="DejaVuSans-72" d="M 2631 2963
Q 2534 3019 2420 3045
Q 2306 3072 2169 3072
Q 1681 3072 1420 2755
Q 1159 2438 1159 1844
L 1159 0
L 581 0
L 581 3500
L 1159 3500
L 1159 2956
Q 1341 3275 1631 3429
Q 1922 3584 2338 3584
Q 2397 3584 2469 3576
Q 2541 3569 2628 3553
L 2631 2963
z
" transform="scale(0.015625)"/>
     <path id="DejaVuSans-6e" d="M 3513 2113
L 3513 0
L 2938 0
L 2938 2094
Q 2938 2591 2744 2837
Q 2550 3084 2163 3084
Q 1697 3084 1428 2787
Q 1159 2491 1159 1978
L 1159 0
L 581 0
L 581 3500
L 1159 3500
L 1159 2956
Q 1366 3272 1645 3428
Q 1925 3584 2291 3584
Q 2894 3584 3203 3211
Q 3513 2838 3513 2113
z
" transform="scale(0.015625)"/>
     <path id="DejaVuSans-6f" d="M 1959 3097
Q 1497 3097 1228 2736
Q 959 2375 959 1747
Q 959 1119 1226 758
Q 1494 397 1959 397
Q 2419 397 2687 759
Q 2956 1122 2956 1747
Q 2956 2369 2687 2733
Q 2419 3097 1959 3097
z
M 1959 3584
Q 2709 3584 3137 3096
Q 3566 2609 3566 1747
Q 3566 888 3137 398
Q 2709 -91 1959 -91
Q 1206 -91 779 398
Q 353 888 353 1747
Q 353 2609 779 3096
Q 1206 3584 1959 3584
z
" transform="scale(0.015625)"/>
     <path id="DejaVuSans-75" d="M 544 1381
L 544 3500
L 1119 3500
L 1119 1403
Q 1119 906 1312 657
Q 1506 409 1894 409
Q 2359 409 2629 706
Q 2900 1003 2900 1516
L 2900 3500
L 3475 3500
L 3475 0
L 2900 0
L 2900 538
Q 2691 219 2414 64
Q 2138 -91 1772 -91
Q 1169 -91 856 284
Q 544 659 544 1381
z
M 1991 3584
L 1991 3584
z
" transform="scale(0.015625)"/>
     <path id="DejaVuSans-6c" d="M 603 4863
L 1178 4863
L 1178 0
L 603 0
L 603 4863
z
" transform="scale(0.015625)"/>
     <path id="DejaVuSans-69" d="M 603 3500
L 1178 3500
L 1178 0
L 603 0
L 603 3500
z
M 603 4863
L 1178 4863
L 1178 4134
L 603 4134
L 603 4863
z
" transform="scale(0.015625)"/>
     <path id="DejaVuSans-28" d="M 1984 4856
Q 1566 4138 1362 3434
Q 1159 2731 1159 2009
Q 1159 1288 1364 580
Q 1569 -128 1984 -844
L 1484 -844
Q 1016 -109 783 600
Q 550 1309 550 2009
Q 550 2706 781 3412
Q 1013 4119 1484 4856
L 1984 4856
z
" transform="scale(0.015625)"/>
     <path id="DejaVuSans-Oblique-72" d="M 2853 2969
Q 2766 3016 2653 3041
Q 2541 3066 2413 3066
Q 1953 3066 1609 2717
Q 1266 2369 1153 1784
L 800 0
L 225 0
L 909 3500
L 1484 3500
L 1375 2956
Q 1603 3259 1920 3421
Q 2238 3584 2597 3584
Q 2691 3584 2781 3573
Q 2872 3563 2963 3538
L 2853 2969
z
" transform="scale(0.015625)"/>
     <path id="DejaVuSans-29" d="M 513 4856
L 1013 4856
Q 1481 4119 1714 3412
Q 1947 2706 1947 2009
Q 1947 1309 1714 600
Q 1481 -109 1013 -844
L 513 -844
Q 928 -128 1133 580
Q 1338 1288 1338 2009
Q 1338 2731 1133 3434
Q 928 4138 513 4856
z
" transform="scale(0.015625)"/>
    </defs>
    <use xlink:href="#DejaVuSans-Oblique-48" transform="translate(0 0.015625)"/>
    <use xlink:href="#DejaVuSans-Oblique-69" transform="translate(75.195312 -16.390625) scale(0.7)"/>
    <use xlink:href="#DejaVuSans-223c" transform="translate(116.860352 0.015625)"/>
    <use xlink:href="#DejaVuSans-42" transform="translate(220.131836 0.015625)"/>
    <use xlink:href="#DejaVuSans-65" transform="translate(288.735352 0.015625)"/>
    <use xlink:href="#DejaVuSans-72" transform="translate(350.258789 0.015625)"/>
    <use xlink:href="#DejaVuSans-6e" transform="translate(391.37207 0.015625)"/>
    <use xlink:href="#DejaVuSans-6f" transform="translate(454.750977 0.015625)"/>
    <use xlink:href="#DejaVuSans-75" transform="translate(515.932617 0.015625)"/>
    <use xlink:href="#DejaVuSans-6c" transform="translate(579.311523 0.015625)"/>
    <use xlink:href="#DejaVuSans-6c" transform="translate(607.094727 0.015625)"/>
    <use xlink:href="#DejaVuSans-69" transform="translate(634.87793 0.015625)"/>
    <use xlink:href="#DejaVuSans-28" transform="translate(662.661133 0.015625)"/>
    <use xlink:href="#DejaVuSans-Oblique-72" transform="translate(701.674805 0.015625)"/>
    <use xlink:href="#DejaVuSans-Oblique-69" transform="translate(742.788086 -16.390625) scale(0.7)"/>
    <use xlink:href="#DejaVuSans-29" transform="translate(764.970703 0.015625)"/>
   </g>
  </g>
  <g id="text_2">
   <!-- $\mathrm{logit}(r_i)=\alpha+z_i^\top w$ -->
   <g style="fill: #111827" transform="translate(47.79 63.250312) scale(0.18 -0.18)">
    <defs>
     <path id="DejaVuSans-67" d="M 2906 1791
Q 2906 2416 2648 2759
Q 2391 3103 1925 3103
Q 1463 3103 1205 2759
Q 947 2416 947 1791
Q 947 1169 1205 825
Q 1463 481 1925 481
Q 2391 481 2648 825
Q 2906 1169 2906 1791
z
M 3481 434
Q 3481 -459 3084 -895
Q 2688 -1331 1869 -1331
Q 1566 -1331 1297 -1286
Q 1028 -1241 775 -1147
L 775 -588
Q 1028 -725 1275 -790
Q 1522 -856 1778 -856
Q 2344 -856 2625 -561
Q 2906 -266 2906 331
L 2906 616
Q 2728 306 2450 153
Q 2172 0 1784 0
Q 1141 0 747 490
Q 353 981 353 1791
Q 353 2603 747 3093
Q 1141 3584 1784 3584
Q 2172 3584 2450 3431
Q 2728 3278 2906 2969
L 2906 3500
L 3481 3500
L 3481 434
z
" transform="scale(0.015625)"/>
     <path id="DejaVuSans-74" d="M 1172 4494
L 1172 3500
L 2356 3500
L 2356 3053
L 1172 3053
L 1172 1153
Q 1172 725 1289 603
Q 1406 481 1766 481
L 2356 481
L 2356 0
L 1766 0
Q 1100 0 847 248
Q 594 497 594 1153
L 594 3053
L 172 3053
L 172 3500
L 594 3500
L 594 4494
L 1172 4494
z
" transform="scale(0.015625)"/>
     <path id="DejaVuSans-3d" d="M 678 2906
L 4684 2906
L 4684 2381
L 678 2381
L 678 2906
z
M 678 1631
L 4684 1631
L 4684 1100
L 678 1100
L 678 1631
z
" transform="scale(0.015625)"/>
     <path id="DejaVuSans-Oblique-3b1" d="M 2619 1628
L 2622 2350
Q 2625 3088 2069 3091
Q 1653 3094 1394 2747
Q 1069 2319 959 1747
Q 825 1059 994 731
Q 1169 397 1547 397
Q 1966 397 2319 1063
L 2619 1628
z
M 2166 3578
Q 3141 3594 3128 2584
Q 3128 2584 3616 3500
L 4128 3500
L 3119 1603
L 3109 919
Q 3109 766 3194 638
Q 3291 488 3391 488
L 3669 488
L 3575 0
L 3228 0
Q 2934 0 2722 263
Q 2622 394 2619 669
Q 2416 334 2066 50
Q 1900 -81 1453 -78
Q 722 -72 456 397
Q 184 884 353 1747
Q 534 2675 1009 3097
Q 1544 3569 2166 3578
z
" transform="scale(0.015625)"/>
     <path id="DejaVuSans-2b" d="M 2944 4013
L 2944 2272
L 4684 2272
L 4684 1741
L 2944 1741
L 2944 0
L 2419 0
L 2419 1741
L 678 1741
L 678 2272
L 2419 2272
L 2419 4013
L 2944 4013
z
" transform="scale(0.015625)"/>
     <path id="DejaVuSans-Oblique-7a" d="M 744 3500
L 3475 3500
L 3372 2975
L 738 459
L 2913 459
L 2822 0
L -19 0
L 84 525
L 2719 3041
L 653 3041
L 744 3500
z
" transform="scale(0.015625)"/>
     <path id="DejaVuSans-22a4" d="M 5028 4481
L 5028 4084
L 2988 4084
L 2988 0
L 2588 0
L 2588 4084
L 547 4084
L 547 4481
L 5028 4481
z
" transform="scale(0.015625)"/>
     <path id="DejaVuSans-Oblique-77" d="M 544 3500
L 1113 3500
L 1259 684
L 2566 3500
L 3231 3500
L 3425 684
L 4666 3500
L 5241 3500
L 3641 0
L 2969 0
L 2797 2900
L 1459 0
L 781 0
L 544 3500
z
" transform="scale(0.015625)"/>
    </defs>
    <use xlink:href="#DejaVuSans-6c" transform="translate(0 0.64375)"/>
    <use xlink:href="#DejaVuSans-6f" transform="translate(27.783203 0.64375)"/>
    <use xlink:href="#DejaVuSans-67" transform="translate(88.964844 0.64375)"/>
    <use xlink:href="#DejaVuSans-69" transform="translate(152.441406 0.64375)"/>
    <use xlink:href="#DejaVuSans-74" transform="translate(180.224609 0.64375)"/>
    <use xlink:href="#DejaVuSans-28" transform="translate(219.433594 0.64375)"/>
    <use xlink:href="#DejaVuSans-Oblique-72" transform="translate(258.447266 0.64375)"/>
    <use xlink:href="#DejaVuSans-Oblique-69" transform="translate(299.560547 -15.7625) scale(0.7)"/>
    <use xlink:href="#DejaVuSans-29" transform="translate(321.743164 0.64375)"/>
    <use xlink:href="#DejaVuSans-3d" transform="translate(380.239258 0.64375)"/>
    <use xlink:href="#DejaVuSans-Oblique-3b1" transform="translate(483.510742 0.64375)"/>
    <use xlink:href="#DejaVuSans-2b" transform="translate(568.911133 0.64375)"/>
    <use xlink:href="#DejaVuSans-Oblique-7a" transform="translate(672.182617 0.64375)"/>
    <use xlink:href="#DejaVuSans-22a4" transform="translate(742.776693 38.989063) scale(0.7)"/>
    <use xlink:href="#DejaVuSans-Oblique-69" transform="translate(724.672852 -26.7) scale(0.7)"/>
    <use xlink:href="#DejaVuSans-Oblique-77" transform="translate(820.125326 0.64375)"/>
   </g>
  </g>
  <g id="text_3">
   <!-- $\alpha\sim\mathcal{N}(0,\sigma_\alpha^2),\quadw_j\sim\mathcal{N}(0,\tau^2)$ -->
   <g style="fill: #111827" transform="translate(5.76 106.630312) scale(0.18 -0.18)">
    <defs>
     <path id="STIXNonUnicode-Italic-e23a" d="M 4294 800
L 4301 800
Q 5293 4070 5408 4378
Q 5472 4538 5523 4614
Q 5830 5088 6253 5088
Q 6490 5088 6650 4931
Q 6810 4774 6810 4550
Q 6810 4378 6720 4272
Q 6630 4166 6470 4166
Q 6368 4166 6297 4224
Q 6227 4282 6198 4349
Q 6170 4416 6118 4473
Q 6067 4531 6003 4531
Q 5939 4531 5881 4508
Q 5824 4486 5785 4457
Q 5747 4429 5705 4371
Q 5664 4314 5638 4275
Q 5613 4237 5584 4163
Q 5555 4090 5545 4058
Q 5536 4026 5510 3952
Q 5485 3878 5485 3866
L 4262 -154
L 4134 -154
Q 3078 1280 2483 2893
L 2470 2893
Q 2406 2579 2358 2361
Q 2310 2144 2214 1792
Q 2118 1440 2028 1190
Q 1939 941 1804 653
Q 1670 365 1529 185
Q 1389 6 1203 -115
Q 1018 -237 813 -237
Q 576 -237 416 -80
Q 256 77 256 301
Q 256 474 345 579
Q 435 685 595 685
Q 698 685 768 627
Q 838 570 867 502
Q 896 435 947 377
Q 998 320 1062 320
Q 1222 320 1369 480
Q 1517 640 1638 928
Q 1760 1216 1862 1542
Q 1965 1869 2057 2288
Q 2150 2707 2214 3033
Q 2278 3360 2348 3741
Q 2419 4122 2458 4294
L 2630 4294
Q 2682 4166 2874 3680
Q 3066 3194 3142 3008
Q 3219 2822 3392 2422
Q 3565 2022 3683 1798
Q 3802 1574 3968 1292
Q 4134 1011 4294 800
z
" transform="scale(0.015625)"/>
     <path id="DejaVuSans-30" d="M 2034 4250
Q 1547 4250 1301 3770
Q 1056 3291 1056 2328
Q 1056 1369 1301 889
Q 1547 409 2034 409
Q 2525 409 2770 889
Q 3016 1369 3016 2328
Q 3016 3291 2770 3770
Q 2525 4250 2034 4250
z
M 2034 4750
Q 2819 4750 3233 4129
Q 3647 3509 3647 2328
Q 3647 1150 3233 529
Q 2819 -91 2034 -91
Q 1250 -91 836 529
Q 422 1150 422 2328
Q 422 3509 836 4129
Q 1250 4750 2034 4750
z
" transform="scale(0.015625)"/>
     <path id="DejaVuSans-2c" d="M 750 794
L 1409 794
L 1409 256
L 897 -744
L 494 -744
L 750 256
L 750 794
z
" transform="scale(0.015625)"/>
     <path id="DejaVuSans-Oblique-3c3" d="M 2219 3044
Q 1744 3044 1422 2700
Q 1081 2341 969 1747
Q 844 1119 1044 756
Q 1241 397 1706 397
Q 2166 397 2503 759
Q 2844 1122 2966 1747
Q 3075 2319 2881 2700
Q 2700 3044 2219 3044
z
M 2309 3503
L 4219 3500
L 4106 2925
L 3463 2925
Q 3706 2438 3575 1747
Q 3406 888 2884 400
Q 2359 -91 1609 -91
Q 856 -91 525 400
Q 194 888 363 1747
Q 528 2609 1050 3097
Q 1484 3503 2309 3503
z
" transform="scale(0.015625)"/>
     <path id="DejaVuSans-32" d="M 1228 531
L 3431 531
L 3431 0
L 469 0
L 469 531
Q 828 903 1448 1529
Q 2069 2156 2228 2338
Q 2531 2678 2651 2914
Q 2772 3150 2772 3378
Q 2772 3750 2511 3984
Q 2250 4219 1831 4219
Q 1534 4219 1204 4116
Q 875 4013 500 3803
L 500 4441
Q 881 4594 1212 4672
Q 1544 4750 1819 4750
Q 2544 4750 2975 4387
Q 3406 4025 3406 3419
Q 3406 3131 3298 2873
Q 3191 2616 2906 2266
Q 2828 2175 2409 1742
Q 1991 1309 1228 531
z
" transform="scale(0.015625)"/>
     <path id="DejaVuSans-Oblique-6a" d="M 928 3500
L 1503 3500
L 813 -63
L 809 -78
Q 694 -675 544 -897
Q 403 -1106 132 -1218
Q -138 -1331 -506 -1331
L -722 -1331
L -628 -844
L -481 -844
Q -144 -844 -1 -703
Q 141 -563 238 -63
L 928 3500
z
M 1197 4863
L 1772 4863
L 1631 4134
L 1056 4134
L 1197 4863
z
" transform="scale(0.015625)"/>
     <path id="DejaVuSans-Oblique-3c4" d="M 2103 638
Q 2188 488 2525 488
L 2800 488
L 2706 0
L 2363 0
Q 1800 0 1600 300
Q 1403 606 1534 1269
L 1856 2925
L 541 2925
L 653 3500
L 3881 3500
L 3769 2925
L 2444 2925
L 2113 1234
Q 2025 781 2103 638
z
" transform="scale(0.015625)"/>
    </defs>
    <use xlink:href="#DejaVuSans-Oblique-3b1" transform="translate(0 0.765625)"/>
    <use xlink:href="#DejaVuSans-223c" transform="translate(85.400391 0.765625)"/>
    <use xlink:href="#STIXNonUnicode-Italic-e23a" transform="translate(188.671875 0.765625)"/>
    <use xlink:href="#DejaVuSans-28" transform="translate(284.371857 0.765625)"/>
    <use xlink:href="#DejaVuSans-30" transform="translate(323.385529 0.765625)"/>
    <use xlink:href="#DejaVuSans-2c" transform="translate(387.008575 0.765625)"/>
    <use xlink:href="#DejaVuSans-Oblique-3c3" transform="translate(438.278107 0.765625)"/>
    <use xlink:href="#DejaVuSans-32" transform="translate(506.129721 39.046875) scale(0.7)"/>
    <use xlink:href="#DejaVuSans-Oblique-3b1" transform="translate(501.657013 -26.578125) scale(0.7)"/>
    <use xlink:href="#DejaVuSans-29" transform="translate(553.400229 0.765625)"/>
    <use xlink:href="#DejaVuSans-2c" transform="translate(592.413901 0.765625)"/>
    <use xlink:href="#DejaVuSans-Oblique-77" transform="translate(741.095542 0.765625)"/>
    <use xlink:href="#DejaVuSans-Oblique-6a" transform="translate(822.882651 -15.640625) scale(0.7)"/>
    <use xlink:href="#DejaVuSans-223c" transform="translate(864.54769 0.765625)"/>
    <use xlink:href="#STIXNonUnicode-Italic-e23a" transform="translate(967.819174 0.765625)"/>
    <use xlink:href="#DejaVuSans-28" transform="translate(1063.519156 0.765625)"/>
    <use xlink:href="#DejaVuSans-30" transform="translate(1102.532828 0.765625)"/>
    <use xlink:href="#DejaVuSans-2c" transform="translate(1166.155875 0.765625)"/>
    <use xlink:href="#DejaVuSans-Oblique-3c4" transform="translate(1217.425406 0.765625)"/>
    <use xlink:href="#DejaVuSans-32" transform="translate(1282.09663 39.046875) scale(0.7)"/>
    <use xlink:href="#DejaVuSans-29" transform="translate(1329.367138 0.765625)"/>
   </g>
  </g>
 </g>
</svg>
