<?xml version="1.0" encoding="utf-8" standalone="no"?>
<!DOCTYPE svg PUBLIC "-//W3C//DTD SVG 1.1//EN"
  "http://www.w3.org/Graphics/SVG/1.1/DTD/svg11.dtd">
<svg xmlns:xlink="http://www.w3.org/1999/xlink" width="211.32pt" height="104.58pt" viewBox="0 0 211.32 104.58" xmlns="http://www.w3.org/2000/svg" version="1.1">
 <metadata>
  <rdf:RDF xmlns:dc="http://purl.org/dc/elements/1.1/" xmlns:cc="http://creativecommons.org/ns#" xmlns:rdf="http://www.w3.org/1999/02/22-rdf-syntax-ns#">
   <cc:Work>
    <dc:type rdf:resource="http://purl.org/dc/dcmitype/StillImage"/>
    <dc:format>image/svg+xml</dc:format>
    <dc:creator>
     <cc:Agent>
      <dc:title>Matplotlib v3.9.4, https://matplotlib.org/</dc:title>
     </cc:Agent>
    </dc:creator>
   </cc:Work>
  </rdf:RDF>
 </metadata>
 <defs>
  <style type="text/css">*{stroke-linejoin: round; stroke-linecap: butt}</style>
 </defs>
 <g id="figure_1">
  <g id="patch_1">
   <path d="M 0 104.58
L 211.32 104.58
L 211.32 0
L 0 0
L 0 104.58
z
" style="fill: none; opacity: 0"/>
  </g>
  <g id="text_1">
   <!-- $y \mid X,\beta,\sigma^2 \sim \mathcal{N}(X\beta,\sigma^2 I)$ -->
   <g style="fill: #111827" transform="translate(4.59 19.98) scale(0.18 -0.18)">
    <defs>
     <path id="DejaVuSans-Oblique-79" d="M 1588 -325
Q 1188 -997 936 -1164
Q 684 -1331 294 -1331
L -159 -1331
L -63 -850
L 269 -850
Q 509 -850 678 -719
Q 847 -588 1056 -206
L 1234 128
L 459 3500
L 1069 3500
L 1650 819
L 3256 3500
L 3859 3500
L 1588 -325
z
" transform="scale(0.015625)"/>
     <path id="DejaVuSans-2223" d="M 1350 4934
L 1850 4934
L 1850 -1369
L 1350 -1369
L 1350 4934
z
" transform="scale(0.015625)"/>
     <path id="DejaVuSans-Oblique-58" d="M 878 4666
L 1516 4666
L 2316 2981
L 3763 4666
L 4500 4666
L 2578 2438
L 3738 0
L 3103 0
L 2163 1966
L 459 0
L -275 0
L 1906 2509
L 878 4666
z
" transform="scale(0.015625)"/>
     <path id="DejaVuSans-2c" d="M 750 794
L 1409 794
L 1409 256
L 897 -744
L 494 -744
L 750 256
L 750 794
z
" transform="scale(0.015625)"/>
     <path id="DejaVuSans-Oblique-3b2" d="M 872 216
L 572 -1331
L -6 -1331
L 928 3478
Q 1206 4903 2538 4903
Q 3888 4903 3659 3700
Q 3503 2844 2894 2531
Q 3713 2250 3553 1416
Q 3272 -69 1759 -66
Q 1097 -63 872 216
z
M 1019 966
Q 1259 422 1875 425
Q 2775 425 2966 1406
Q 3138 2288 1675 2219
L 1778 2750
Q 2909 2731 3106 3750
Q 3241 4438 2509 4434
Q 1691 4434 1503 3459
L 1019 966
z
" transform="scale(0.015625)"/>
     <path id="DejaVuSans-Oblique-3c3" d="M 2219 3044
Q 1744 3044 1422 2700
Q 1081 2341 969 1747
Q 844 1119 1044 756
Q 1241 397 1706 397
Q 2166 397 2503 759
Q 2844 1122 2966 1747
Q 3075 2319 2881 2700
Q 2700 3044 2219 3044
z
M 2309 3503
L 4219 3500
L 4106 2925
L 3463 2925
Q 3706 2438 3575 1747
Q 3406 888 2884 400
Q 2359 -91 1609 -91
Q 856 -91 525 400
Q 194 888 363 1747
Q 528 2609 1050 3097
Q 1484 3503 2309 3503
z
" transform="scale(0.015625)"/>
     <path id="DejaVuSans-32" d="M 1228 531
L 3431 531
L 3431 0
L 469 0
L 469 531
Q 828 903 1448 1529
Q 2069 2156 2228 2338
Q 2531 2678 2651 2914
Q 2772 3150 2772 3378
Q 2772 3750 2511 3984
Q 2250 4219 1831 4219
Q 1534 4219 1204 4116
Q 875 4013 500 3803
L 500 4441
Q 881 4594 1212 4672
Q 1544 4750 1819 4750
Q 2544 4750 2975 4387
Q 3406 4025 3406 3419
Q 3406 3131 3298 2873
Q 3191 2616 2906 2266
Q 2828 2175 2409 1742
Q 1991 1309 1228 531
z
" transform="scale(0.015625)"/>
     <path id="DejaVuSans-223c" d="M 4684 2556
L 4684 1997
Q 4356 1753 4076 1645
Q 3797 1538 3494 1538
Q 3150 1538 2694 1722
Q 2663 1734 2641 1744
Q 2622 1750 2575 1769
Q 2091 1959 1797 1959
Q 1522 1959 1253 1840
Q 984 1722 678 1459
L 678 2019
Q 1006 2263 1286 2370
Q 1566 2478 1869 2478
Q 2213 2478 2672 2294
Q 2706 2278 2722 2272
Q 2741 2266 2788 2247
Q 3272 2056 3566 2056
Q 3834 2056 4098 2173
Q 4363 2291 4684 2556
z
" transform="scale(0.015625)"/>
     <path id="STIXNonUnicode-Italic-e23a" d="M 4294 800
L 4301 800
Q 5293 4070 5408 4378
Q 5472 4538 5523 4614
Q 5830 5088 6253 5088
Q 6490 5088 6650 4931
Q 6810 4774 6810 4550
Q 6810 4378 6720 4272
Q 6630 4166 6470 4166
Q 6368 4166 6297 4224
Q 6227 4282 6198 4349
Q 6170 4416 6118 4473
Q 6067 4531 6003 4531
Q 5939 4531 5881 4508
Q 5824 4486 5785 4457
Q 5747 4429 5705 4371
Q 5664 4314 5638 4275
Q 5613 4237 5584 4163
Q 5555 4090 5545 4058
Q 5536 4026 5510 3952
Q 5485 3878 5485 3866
L 4262 -154
L 4134 -154
Q 3078 1280 2483 2893
L 2470 2893
Q 2406 2579 2358 2361
Q 2310 2144 2214 1792
Q 2118 1440 2028 1190
Q 1939 941 1804 653
Q 1670 365 1529 185
Q 1389 6 1203 -115
Q 1018 -237 813 -237
Q 576 -237 416 -80
Q 256 77 256 301
Q 256 474 345 579
Q 435 685 595 685
Q 698 685 768 627
Q 838 570 867 502
Q 896 435 947 377
Q 998 320 1062 320
Q 1222 320 1369 480
Q 1517 640 1638 928
Q 1760 1216 1862 1542
Q 1965 1869 2057 2288
Q 2150 2707 2214 3033
Q 2278 3360 2348 3741
Q 2419 4122 2458 4294
L 2630 4294
Q 2682 4166 2874 3680
Q 3066 3194 3142 3008
Q 3219 2822 3392 2422
Q 3565 2022 3683 1798
Q 3802 1574 3968 1292
Q 4134 1011 4294 800
z
" transform="scale(0.015625)"/>
     <path id="DejaVuSans-28" d="M 1984 4856
Q 1566 4138 1362 3434
Q 1159 2731 1159 2009
Q 1159 1288 1364 580
Q 1569 -128 1984 -844
L 1484 -844
Q 1016 -109 783 600
Q 550 1309 550 2009
Q 550 2706 781 3412
Q 1013 4119 1484 4856
L 1984 4856
z
" transform="scale(0.015625)"/>
     <path id="DejaVuSans-Oblique-49" d="M 1081 4666
L 1716 4666
L 806 0
L 172 0
L 1081 4666
z
" transform="scale(0.015625)"/>
     <path id="DejaVuSans-29" d="M 513 4856
L 1013 4856
Q 1481 4119 1714 3412
Q 1947 2706 1947 2009
Q 1947 1309 1714 600
Q 1481 -109 1013 -844
L 513 -844
Q 928 -128 1133 580
Q 1338 1288 1338 2009
Q 1338 2731 1133 3434
Q 928 4138 513 4856
z
" transform="scale(0.015625)"/>
    </defs>
    <use xlink:href="#DejaVuSans-Oblique-79" transform="translate(0 0.765625)"/>
    <use xlink:href="#DejaVuSans-2223" transform="translate(78.662109 0.765625)"/>
    <use xlink:href="#DejaVuSans-Oblique-58" transform="translate(148.144531 0.765625)"/>
    <use xlink:href="#DejaVuSans-2c" transform="translate(216.650391 0.765625)"/>
    <use xlink:href="#DejaVuSans-Oblique-3b2" transform="translate(267.919922 0.765625)"/>
    <use xlink:href="#DejaVuSans-2c" transform="translate(331.738281 0.765625)"/>
    <use xlink:href="#DejaVuSans-Oblique-3c3" transform="translate(383.007812 0.765625)"/>
    <use xlink:href="#DejaVuSans-32" transform="translate(450.859427 39.046875) scale(0.7)"/>
    <use xlink:href="#DejaVuSans-223c" transform="translate(517.612357 0.765625)"/>
    <use xlink:href="#STIXNonUnicode-Italic-e23a" transform="translate(620.883841 0.765625)"/>
    <use xlink:href="#DejaVuSans-28" transform="translate(716.583823 0.765625)"/>
    <use xlink:href="#DejaVuSans-Oblique-58" transform="translate(755.597495 0.765625)"/>
    <use xlink:href="#DejaVuSans-Oblique-3b2" transform="translate(824.103354 0.765625)"/>
    <use xlink:href="#DejaVuSans-2c" transform="translate(887.921713 0.765625)"/>
    <use xlink:href="#DejaVuSans-Oblique-3c3" transform="translate(939.191245 0.765625)"/>
    <use xlink:href="#DejaVuSans-32" transform="translate(1007.042859 39.046875) scale(0.7)"/>
    <use xlink:href="#DejaVuSans-Oblique-49" transform="translate(1054.313367 0.765625)"/>
    <use xlink:href="#DejaVuSans-29" transform="translate(1083.805555 0.765625)"/>
   </g>
  </g>
  <g id="text_2">
   <!-- $\beta \sim \mathcal{N}(0,V_0)$ -->
   <g style="fill: #111827" transform="translate(52.47 57.78) scale(0.18 -0.18)">
    <defs>
     <path id="DejaVuSans-30" d="M 2034 4250
Q 1547 4250 1301 3770
Q 1056 3291 1056 2328
Q 1056 1369 1301 889
Q 1547 409 2034 409
Q 2525 409 2770 889
Q 3016 1369 3016 2328
Q 3016 3291 2770 3770
Q 2525 4250 2034 4250
z
M 2034 4750
Q 2819 4750 3233 4129
Q 3647 3509 3647 2328
Q 3647 1150 3233 529
Q 2819 -91 2034 -91
Q 1250 -91 836 529
Q 422 1150 422 2328
Q 422 3509 836 4129
Q 1250 4750 2034 4750
z
" transform="scale(0.015625)"/>
     <path id="DejaVuSans-Oblique-56" d="M 1319 0
L 500 4666
L 1119 4666
L 1797 653
L 4063 4666
L 4750 4666
L 2053 0
L 1319 0
z
" transform="scale(0.015625)"/>
    </defs>
    <use xlink:href="#DejaVuSans-Oblique-3b2" transform="translate(0 0.5)"/>
    <use xlink:href="#DejaVuSans-223c" transform="translate(83.300781 0.5)"/>
    <use xlink:href="#STIXNonUnicode-Italic-e23a" transform="translate(186.572266 0.5)"/>
    <use xlink:href="#DejaVuSans-28" transform="translate(282.272247 0.5)"/>
    <use xlink:href="#DejaVuSans-30" transform="translate(321.285919 0.5)"/>
    <use xlink:href="#DejaVuSans-2c" transform="translate(384.908966 0.5)"/>
    <use xlink:href="#DejaVuSans-Oblique-56" transform="translate(436.178497 0.5)"/>
    <use xlink:href="#DejaVuSans-30" transform="translate(504.5867 -15.90625) scale(0.7)"/>
    <use xlink:href="#DejaVuSans-29" transform="translate(551.857208 0.5)"/>
   </g>
  </g>
  <g id="text_3">
   <!-- $\sigma^2 \sim \mathrm{InvGamma}(a_0,b_0)$ -->
   <g style="fill: #111827" transform="translate(3.6 97.236563) scale(0.18 -0.18)">
    <defs>
     <path id="DejaVuSans-49" d="M 628 4666
L 1259 4666
L 1259 0
L 628 0
L 628 4666
z
" transform="scale(0.015625)"/>
     <path id="DejaVuSans-6e" d="M 3513 2113
L 3513 0
L 2938 0
L 2938 2094
Q 2938 2591 2744 2837
Q 2550 3084 2163 3084
Q 1697 3084 1428 2787
Q 1159 2491 1159 1978
L 1159 0
L 581 0
L 581 3500
L 1159 3500
L 1159 2956
Q 1366 3272 1645 3428
Q 1925 3584 2291 3584
Q 2894 3584 3203 3211
Q 3513 2838 3513 2113
z
" transform="scale(0.015625)"/>
     <path id="DejaVuSans-76" d="M 191 3500
L 800 3500
L 1894 563
L 2988 3500
L 3597 3500
L 2284 0
L 1503 0
L 191 3500
z
" transform="scale(0.015625)"/>
     <path id="DejaVuSans-47" d="M 3809 666
L 3809 1919
L 2778 1919
L 2778 2438
L 4434 2438
L 4434 434
Q 4069 175 3628 42
Q 3188 -91 2688 -91
Q 1594 -91 976 548
Q 359 1188 359 2328
Q 359 3472 976 4111
Q 1594 4750 2688 4750
Q 3144 4750 3555 4637
Q 3966 4525 4313 4306
L 4313 3634
Q 3963 3931 3569 4081
Q 3175 4231 2741 4231
Q 1884 4231 1454 3753
Q 1025 3275 1025 2328
Q 1025 1384 1454 906
Q 1884 428 2741 428
Q 3075 428 3337 486
Q 3600 544 3809 666
z
" transform="scale(0.015625)"/>
     <path id="DejaVuSans-61" d="M 2194 1759
Q 1497 1759 1228 1600
Q 959 1441 959 1056
Q 959 750 1161 570
Q 1363 391 1709 391
Q 2188 391 2477 730
Q 2766 1069 2766 1631
L 2766 1759
L 2194 1759
z
M 3341 1997
L 3341 0
L 2766 0
L 2766 531
Q 2569 213 2275 61
Q 1981 -91 1556 -91
Q 1019 -91 701 211
Q 384 513 384 1019
Q 384 1609 779 1909
Q 1175 2209 1959 2209
L 2766 2209
L 2766 2266
Q 2766 2663 2505 2880
Q 2244 3097 1772 3097
Q 1472 3097 1187 3025
Q 903 2953 641 2809
L 641 3341
Q 956 3463 1253 3523
Q 1550 3584 1831 3584
Q 2591 3584 2966 3190
Q 3341 2797 3341 1997
z
" transform="scale(0.015625)"/>
     <path id="DejaVuSans-6d" d="M 3328 2828
Q 3544 3216 3844 3400
Q 4144 3584 4550 3584
Q 5097 3584 5394 3201
Q 5691 2819 5691 2113
L 5691 0
L 5113 0
L 5113 2094
Q 5113 2597 4934 2840
Q 4756 3084 4391 3084
Q 3944 3084 3684 2787
Q 3425 2491 3425 1978
L 3425 0
L 2847 0
L 2847 2094
Q 2847 2600 2669 2842
Q 2491 3084 2119 3084
Q 1678 3084 1418 2786
Q 1159 2488 1159 1978
L 1159 0
L 581 0
L 581 3500
L 1159 3500
L 1159 2956
Q 1356 3278 1631 3431
Q 1906 3584 2284 3584
Q 2666 3584 2933 3390
Q 3200 3197 3328 2828
z
" transform="scale(0.015625)"/>
     <path id="DejaVuSans-Oblique-61" d="M 3438 1997
L 3047 0
L 2472 0
L 2578 531
Q 2325 219 2001 64
Q 1678 -91 1281 -91
Q 834 -91 548 182
Q 263 456 263 884
Q 263 1497 752 1853
Q 1241 2209 2100 2209
L 2900 2209
L 2931 2363
Q 2938 2388 2941 2417
Q 2944 2447 2944 2509
Q 2944 2788 2717 2942
Q 2491 3097 2081 3097
Q 1800 3097 1504 3025
Q 1209 2953 897 2809
L 997 3341
Q 1322 3463 1633 3523
Q 1944 3584 2234 3584
Q 2853 3584 3176 3315
Q 3500 3047 3500 2534
Q 3500 2431 3484 2292
Q 3469 2153 3438 1997
z
M 2816 1759
L 2241 1759
Q 1534 1759 1195 1570
Q 856 1381 856 984
Q 856 709 1029 553
Q 1203 397 1509 397
Q 1978 397 2328 733
Q 2678 1069 2791 1631
L 2816 1759
z
" transform="scale(0.015625)"/>
     <path id="DejaVuSans-Oblique-62" d="M 3169 2138
Q 3169 2591 2961 2847
Q 2753 3103 2388 3103
Q 2122 3103 1889 2973
Q 1656 2844 1484 2597
Q 1303 2338 1198 1995
Q 1094 1653 1094 1313
Q 1094 881 1298 636
Q 1503 391 1863 391
Q 2134 391 2365 517
Q 2597 644 2772 891
Q 2950 1147 3059 1487
Q 3169 1828 3169 2138
z
M 1381 2969
Q 1594 3256 1914 3420
Q 2234 3584 2584 3584
Q 3122 3584 3439 3221
Q 3756 2859 3756 2241
Q 3756 1734 3570 1259
Q 3384 784 3041 416
Q 2816 172 2522 40
Q 2228 -91 1906 -91
Q 1566 -91 1316 65
Q 1066 222 909 531
L 806 0
L 231 0
L 1178 4863
L 1753 4863
L 1381 2969
z
" transform="scale(0.015625)"/>
    </defs>
    <use xlink:href="#DejaVuSans-Oblique-3c3" transform="translate(0 0.765625)"/>
    <use xlink:href="#DejaVuSans-32" transform="translate(67.851615 39.046875) scale(0.7)"/>
    <use xlink:href="#DejaVuSans-223c" transform="translate(134.604544 0.765625)"/>
    <use xlink:href="#DejaVuSans-49" transform="translate(237.876029 0.765625)"/>
    <use xlink:href="#DejaVuSans-6e" transform="translate(267.368216 0.765625)"/>
    <use xlink:href="#DejaVuSans-76" transform="translate(330.747122 0.765625)"/>
    <use xlink:href="#DejaVuSans-47" transform="translate(389.92681 0.765625)"/>
    <use xlink:href="#DejaVuSans-61" transform="translate(467.417044 0.765625)"/>
    <use xlink:href="#DejaVuSans-6d" transform="translate(528.696341 0.765625)"/>
    <use xlink:href="#DejaVuSans-6d" transform="translate(626.108451 0.765625)"/>
    <use xlink:href="#DejaVuSans-61" transform="translate(723.52056 0.765625)"/>
    <use xlink:href="#DejaVuSans-28" transform="translate(784.799857 0.765625)"/>
    <use xlink:href="#DejaVuSans-Oblique-61" transform="translate(823.813529 0.765625)"/>
    <use xlink:href="#DejaVuSans-30" transform="translate(885.092826 -15.640625) scale(0.7)"/>
    <use xlink:href="#DejaVuSans-2c" transform="translate(932.363333 0.765625)"/>
    <use xlink:href="#DejaVuSans-Oblique-62" transform="translate(983.632865 0.765625)"/>
    <use xlink:href="#DejaVuSans-30" transform="translate(1047.109427 -15.640625) scale(0.7)"/>
    <use xlink:href="#DejaVuSans-29" transform="translate(1094.379935 0.765625)"/>
   </g>
  </g>
 </g>
</svg>
