<?xml version="1.0" encoding="utf-8" standalone="no"?>
<!DOCTYPE svg PUBLIC "-//W3C//DTD SVG 1.1//EN"
  "http://www.w3.org/Graphics/SVG/1.1/DTD/svg11.dtd">
<svg xmlns:xlink="http://www.w3.org/1999/xlink" width="235.26pt" height="27pt" viewBox="0 0 235.26 27" xmlns="http://www.w3.org/2000/svg" version="1.1">
 <metadata>
  <rdf:RDF xmlns:dc="http://purl.org/dc/elements/1.1/" xmlns:cc="http://creativecommons.org/ns#" xmlns:rdf="http://www.w3.org/1999/02/22-rdf-syntax-ns#">
   <cc:Work>
    <dc:type rdf:resource="http://purl.org/dc/dcmitype/StillImage"/>
    <dc:format>image/svg+xml</dc:format>
    <dc:creator>
     <cc:Agent>
      <dc:title>Matplotlib v3.9.4, https://matplotlib.org/</dc:title>
     </cc:Agent>
    </dc:creator>
   </cc:Work>
  </rdf:RDF>
 </metadata>
 <defs>
  <style type="text/css">*{stroke-linejoin: round; stroke-linecap: butt}</style>
 </defs>
 <g id="figure_1">
  <g id="patch_1">
   <path d="M 0 27
L 235.26 27
L 235.26 0
L 0 0
L 0 27
z
" style="fill: none; opacity: 0"/>
  </g>
  <g id="text_1">
   <!-- $r(x)=\mathbb{E}_{\theta\mid D}\left[P(H=1\mid x,\theta)\right]$ -->
   <g style="fill: #111827" transform="translate(3.6 17.64) scale(0.18 -0.18)">
    <defs>
     <path id="DejaVuSans-Oblique-72" d="M 2853 2969
Q 2766 3016 2653 3041
Q 2541 3066 2413 3066
Q 1953 3066 1609 2717
Q 1266 2369 1153 1784
L 800 0
L 225 0
L 909 3500
L 1484 3500
L 1375 2956
Q 1603 3259 1920 3421
Q 2238 3584 2597 3584
Q 2691 3584 2781 3573
Q 2872 3563 2963 3538
L 2853 2969
z
" transform="scale(0.015625)"/>
     <path id="DejaVuSans-28" d="M 1984 4856
Q 1566 4138 1362 3434
Q 1159 2731 1159 2009
Q 1159 1288 1364 580
Q 1569 -128 1984 -844
L 1484 -844
Q 1016 -109 783 600
Q 550 1309 550 2009
Q 550 2706 781 3412
Q 1013 4119 1484 4856
L 1984 4856
z
" transform="scale(0.015625)"/>
     <path id="DejaVuSans-Oblique-78" d="M 3841 3500
L 2234 1784
L 3219 0
L 2559 0
L 1819 1388
L 531 0
L -166 0
L 1556 1844
L 641 3500
L 1300 3500
L 1972 2234
L 3144 3500
L 3841 3500
z
" transform="scale(0.015625)"/>
     <path id="DejaVuSans-29" d="M 513 4856
L 1013 4856
Q 1481 4119 1714 3412
Q 1947 2706 1947 2009
Q 1947 1309 1714 600
Q 1481 -109 1013 -844
L 513 -844
Q 928 -128 1133 580
Q 1338 1288 1338 2009
Q 1338 2731 1133 3434
Q 928 4138 513 4856
z
" transform="scale(0.015625)"/>
     <path id="DejaVuSans-3d" d="M 678 2906
L 4684 2906
L 4684 2381
L 678 2381
L 678 2906
z
M 678 1631
L 4684 1631
L 4684 1100
L 678 1100
L 678 1631
z
" transform="scale(0.015625)"/>
     <path id="STIXNonUnicode-Italic-e156" d="M 4250 4179
L 4192 3942
L 2150 3942
L 1709 2266
L 3514 2266
L 3443 2029
L 1645 2029
L 1165 237
L 3443 237
L 3392 0
L 109 0
L 1229 4179
L 4250 4179
z
M 1914 3942
L 1414 3942
L 416 237
L 928 237
L 1914 3942
z
" transform="scale(0.015625)"/>
     <path id="DejaVuSans-Oblique-3b8" d="M 2913 2219
L 925 2219
Q 791 1284 928 888
Q 1100 400 1566 400
Q 2034 400 2391 891
Q 2703 1322 2913 2219
z
M 3009 2750
Q 3094 3638 2984 3950
Q 2813 4444 2353 4444
Q 1875 4444 1525 3956
Q 1250 3563 1034 2750
L 3009 2750
z
M 2444 4913
Q 3194 4913 3494 4250
Q 3794 3591 3566 2422
Q 3341 1256 2781 594
Q 2225 -72 1475 -72
Q 722 -72 425 594
Q 128 1256 353 2422
Q 581 3591 1134 4250
Q 1691 4913 2444 4913
z
" transform="scale(0.015625)"/>
     <path id="DejaVuSans-2223" d="M 1350 4934
L 1850 4934
L 1850 -1369
L 1350 -1369
L 1350 4934
z
" transform="scale(0.015625)"/>
     <path id="DejaVuSans-Oblique-44" d="M 1081 4666
L 2438 4666
Q 3519 4666 4070 4208
Q 4622 3750 4622 2847
Q 4622 2250 4412 1698
Q 4203 1147 3834 769
Q 3463 381 2891 190
Q 2319 0 1538 0
L 172 0
L 1081 4666
z
M 1613 4147
L 909 519
L 1734 519
Q 2794 519 3375 1128
Q 3956 1738 3956 2847
Q 3956 3519 3581 3833
Q 3206 4147 2406 4147
L 1613 4147
z
" transform="scale(0.015625)"/>
     <path id="DejaVuSans-5b" d="M 550 4863
L 1875 4863
L 1875 4416
L 1125 4416
L 1125 -397
L 1875 -397
L 1875 -844
L 550 -844
L 550 4863
z
" transform="scale(0.015625)"/>
     <path id="DejaVuSans-Oblique-50" d="M 1081 4666
L 2541 4666
Q 3178 4666 3512 4369
Q 3847 4072 3847 3500
Q 3847 2731 3353 2303
Q 2859 1875 1966 1875
L 1172 1875
L 806 0
L 172 0
L 1081 4666
z
M 1613 4147
L 1275 2394
L 2069 2394
Q 2606 2394 2893 2669
Q 3181 2944 3181 3456
Q 3181 3784 2986 3965
Q 2791 4147 2438 4147
L 1613 4147
z
" transform="scale(0.015625)"/>
     <path id="DejaVuSans-Oblique-48" d="M 1081 4666
L 1716 4666
L 1344 2753
L 3634 2753
L 4006 4666
L 4641 4666
L 3731 0
L 3097 0
L 3531 2222
L 1241 2222
L 806 0
L 172 0
L 1081 4666
z
" transform="scale(0.015625)"/>
     <path id="DejaVuSans-31" d="M 794 531
L 1825 531
L 1825 4091
L 703 3866
L 703 4441
L 1819 4666
L 2450 4666
L 2450 531
L 3481 531
L 3481 0
L 794 0
L 794 531
z
" transform="scale(0.015625)"/>
     <path id="DejaVuSans-2c" d="M 750 794
L 1409 794
L 1409 256
L 897 -744
L 494 -744
L 750 256
L 750 794
z
" transform="scale(0.015625)"/>
     <path id="DejaVuSans-5d" d="M 1947 4863
L 1947 -844
L 622 -844
L 622 -397
L 1369 -397
L 1369 4416
L 622 4416
L 622 4863
L 1947 4863
z
" transform="scale(0.015625)"/>
    </defs>
    <use xlink:href="#DejaVuSans-Oblique-72" transform="translate(0 0.90625)"/>
    <use xlink:href="#DejaVuSans-28" transform="translate(41.113281 0.90625)"/>
    <use xlink:href="#DejaVuSans-Oblique-78" transform="translate(80.126953 0.90625)"/>
    <use xlink:href="#DejaVuSans-29" transform="translate(139.306641 0.90625)"/>
    <use xlink:href="#DejaVuSans-3d" transform="translate(197.802734 0.90625)"/>
    <use xlink:href="#STIXNonUnicode-Italic-e156" transform="translate(301.074219 0.90625)"/>
    <use xlink:href="#DejaVuSans-Oblique-3b8" transform="translate(365.931244 -15.5) scale(0.7)"/>
    <use xlink:href="#DejaVuSans-2223" transform="translate(422.396088 -15.5) scale(0.7)"/>
    <use xlink:href="#DejaVuSans-Oblique-44" transform="translate(471.033783 -15.5) scale(0.7)"/>
    <use xlink:href="#DejaVuSans-5b" transform="translate(527.669525 0.90625)"/>
    <use xlink:href="#DejaVuSans-Oblique-50" transform="translate(566.683197 0.90625)"/>
    <use xlink:href="#DejaVuSans-28" transform="translate(626.985931 0.90625)"/>
    <use xlink:href="#DejaVuSans-Oblique-48" transform="translate(665.999603 0.90625)"/>
    <use xlink:href="#DejaVuSans-3d" transform="translate(760.677338 0.90625)"/>
    <use xlink:href="#DejaVuSans-31" transform="translate(863.948822 0.90625)"/>
    <use xlink:href="#DejaVuSans-2223" transform="translate(947.054291 0.90625)"/>
    <use xlink:href="#DejaVuSans-Oblique-78" transform="translate(1016.536713 0.90625)"/>
    <use xlink:href="#DejaVuSans-2c" transform="translate(1075.7164 0.90625)"/>
    <use xlink:href="#DejaVuSans-Oblique-3b8" transform="translate(1126.985931 0.90625)"/>
    <use xlink:href="#DejaVuSans-29" transform="translate(1188.167572 0.90625)"/>
    <use xlink:href="#DejaVuSans-5d" transform="translate(1227.181244 0.90625)"/>
   </g>
  </g>
 </g>
</svg>
