<?xml version="1.0" encoding="utf-8" standalone="no"?>
<!DOCTYPE svg PUBLIC "-//W3C//DTD SVG 1.1//EN"
  "http://www.w3.org/Graphics/SVG/1.1/DTD/svg11.dtd">
<svg xmlns:xlink="http://www.w3.org/1999/xlink" width="320.94pt" height="76.26pt" viewBox="0 0 320.94 76.26" xmlns="http://www.w3.org/2000/svg" version="1.1">
 <metadata>
  <rdf:RDF xmlns:dc="http://purl.org/dc/elements/1.1/" xmlns:cc="http://creativecommons.org/ns#" xmlns:rdf="http://www.w3.org/1999/02/22-rdf-syntax-ns#">
   <cc:Work>
    <dc:type rdf:resource="http://purl.org/dc/dcmitype/StillImage"/>
    <dc:format>image/svg+xml</dc:format>
    <dc:creator>
     <cc:Agent>
      <dc:title>Matplotlib v3.9.4, https://matplotlib.org/</dc:title>
     </cc:Agent>
    </dc:creator>
   </cc:Work>
  </rdf:RDF>
 </metadata>
 <defs>
  <style type="text/css">*{stroke-linejoin: round; stroke-linecap: butt}</style>
 </defs>
 <g id="figure_1">
  <g id="patch_1">
   <path d="M 0 76.26
L 320.94 76.26
L 320.94 0
L 0 0
z
" style="fill: #ffffff"/>
  </g>
  <g id="text_1">
   <!-- $p(\tilde{y}\mid \tilde{x},D)$ -->
   <g style="fill: #111827" transform="translate(117.45 20.34) scale(0.18 -0.18)">
    <defs>
     <path id="DejaVuSans-Oblique-70" d="M 3175 2156
Q 3175 2616 2975 2859
Q 2775 3103 2400 3103
Q 2144 3103 1911 2972
Q 1678 2841 1497 2591
Q 1319 2344 1212 1994
Q 1106 1644 1106 1300
Q 1106 863 1306 627
Q 1506 391 1875 391
Q 2147 391 2380 519
Q 2613 647 2778 891
Q 2956 1147 3065 1494
Q 3175 1841 3175 2156
z
M 1394 2969
Q 1625 3272 1939 3428
Q 2253 3584 2638 3584
Q 3175 3584 3472 3232
Q 3769 2881 3769 2247
Q 3769 1728 3584 1258
Q 3400 788 3053 416
Q 2822 169 2531 39
Q 2241 -91 1919 -91
Q 1547 -91 1294 64
Q 1041 219 916 525
L 556 -1331
L -19 -1331
L 922 3500
L 1497 3500
L 1394 2969
z
" transform="scale(0.015625)"/>
     <path id="DejaVuSans-28" d="M 1984 4856
Q 1566 4138 1362 3434
Q 1159 2731 1159 2009
Q 1159 1288 1364 580
Q 1569 -128 1984 -844
L 1484 -844
Q 1016 -109 783 600
Q 550 1309 550 2009
Q 550 2706 781 3412
Q 1013 4119 1484 4856
L 1984 4856
z
" transform="scale(0.015625)"/>
     <path id="DejaVuSans-303" d="M -1621 4281
L -1799 4453
Q -1867 4516 -1919 4545
Q -1971 4575 -2011 4575
Q -2130 4575 -2186 4461
Q -2242 4347 -2249 4091
L -2639 4091
Q -2633 4513 -2473 4742
Q -2314 4972 -2030 4972
Q -1911 4972 -1811 4928
Q -1711 4884 -1596 4781
L -1417 4609
Q -1349 4547 -1297 4517
Q -1246 4488 -1205 4488
Q -1086 4488 -1030 4602
Q -974 4716 -967 4972
L -577 4972
Q -583 4550 -742 4320
Q -902 4091 -1186 4091
Q -1305 4091 -1405 4134
Q -1505 4178 -1621 4281
z
" transform="scale(0.015625)"/>
     <path id="DejaVuSans-Oblique-79" d="M 1588 -325
Q 1188 -997 936 -1164
Q 684 -1331 294 -1331
L -159 -1331
L -63 -850
L 269 -850
Q 509 -850 678 -719
Q 847 -588 1056 -206
L 1234 128
L 459 3500
L 1069 3500
L 1650 819
L 3256 3500
L 3859 3500
L 1588 -325
z
" transform="scale(0.015625)"/>
     <path id="DejaVuSans-2223" d="M 1350 4934
L 1850 4934
L 1850 -1369
L 1350 -1369
L 1350 4934
z
" transform="scale(0.015625)"/>
     <path id="DejaVuSans-Oblique-78" d="M 3841 3500
L 2234 1784
L 3219 0
L 2559 0
L 1819 1388
L 531 0
L -166 0
L 1556 1844
L 641 3500
L 1300 3500
L 1972 2234
L 3144 3500
L 3841 3500
z
" transform="scale(0.015625)"/>
     <path id="DejaVuSans-2c" d="M 750 794
L 1409 794
L 1409 256
L 897 -744
L 494 -744
L 750 256
L 750 794
z
" transform="scale(0.015625)"/>
     <path id="DejaVuSans-Oblique-44" d="M 1081 4666
L 2438 4666
Q 3519 4666 4070 4208
Q 4622 3750 4622 2847
Q 4622 2250 4412 1698
Q 4203 1147 3834 769
Q 3463 381 2891 190
Q 2319 0 1538 0
L 172 0
L 1081 4666
z
M 1613 4147
L 909 519
L 1734 519
Q 2794 519 3375 1128
Q 3956 1738 3956 2847
Q 3956 3519 3581 3833
Q 3206 4147 2406 4147
L 1613 4147
z
" transform="scale(0.015625)"/>
     <path id="DejaVuSans-29" d="M 513 4856
L 1013 4856
Q 1481 4119 1714 3412
Q 1947 2706 1947 2009
Q 1947 1309 1714 600
Q 1481 -109 1013 -844
L 513 -844
Q 928 -128 1133 580
Q 1338 1288 1338 2009
Q 1338 2731 1133 3434
Q 928 4138 513 4856
z
" transform="scale(0.015625)"/>
    </defs>
    <use xlink:href="#DejaVuSans-Oblique-70" transform="translate(0 0.046875)"/>
    <use xlink:href="#DejaVuSans-28" transform="translate(63.476562 0.046875)"/>
    <use xlink:href="#DejaVuSans-303" transform="translate(164.519531 3.3125)"/>
    <use xlink:href="#DejaVuSans-Oblique-79" transform="translate(102.490234 0.046875)"/>
    <use xlink:href="#DejaVuSans-2223" transform="translate(181.152344 0.046875)"/>
    <use xlink:href="#DejaVuSans-303" transform="translate(312.664062 3.3125)"/>
    <use xlink:href="#DejaVuSans-Oblique-78" transform="translate(250.634766 0.046875)"/>
    <use xlink:href="#DejaVuSans-2c" transform="translate(309.814453 0.046875)"/>
    <use xlink:href="#DejaVuSans-Oblique-44" transform="translate(361.083984 0.046875)"/>
    <use xlink:href="#DejaVuSans-29" transform="translate(438.085938 0.046875)"/>
   </g>
  </g>
  <g id="text_2">
   <!-- $= \int p(\tilde{y}\mid \tilde{x},\beta,\sigma^2)\,p(\beta,\sigma^2\mid D)\,d\beta\,d\sigma^2$ -->
   <g style="fill: #111827" transform="translate(5.76 64.92) scale(0.18 -0.18)">
    <defs>
     <path id="DejaVuSans-3d" d="M 678 2906
L 4684 2906
L 4684 2381
L 678 2381
L 678 2906
z
M 678 1631
L 4684 1631
L 4684 1100
L 678 1100
L 678 1631
z
" transform="scale(0.015625)"/>
     <path id="DejaVuSansDisplay-222b" d="M 2134 5525
Q 2172 6263 2528 6556
Q 2884 6850 3218 6850
Q 3553 6850 3833 6575
Q 4113 6300 4200 5678
L 3544 5613
Q 3469 6188 3219 6188
Q 2906 6188 2869 5413
L 2581 -597
Q 2547 -1334 2187 -1628
Q 1828 -1922 1497 -1922
Q 1163 -1922 883 -1647
Q 603 -1372 516 -750
L 1172 -684
Q 1247 -1259 1497 -1259
Q 1809 -1259 1847 -488
L 2134 5525
z
" transform="scale(0.015625)"/>
     <path id="DejaVuSans-Oblique-3b2" d="M 872 216
L 572 -1331
L -6 -1331
L 928 3478
Q 1206 4903 2538 4903
Q 3888 4903 3659 3700
Q 3503 2844 2894 2531
Q 3713 2250 3553 1416
Q 3272 -69 1759 -66
Q 1097 -63 872 216
z
M 1019 966
Q 1259 422 1875 425
Q 2775 425 2966 1406
Q 3138 2288 1675 2219
L 1778 2750
Q 2909 2731 3106 3750
Q 3241 4438 2509 4434
Q 1691 4434 1503 3459
L 1019 966
z
" transform="scale(0.015625)"/>
     <path id="DejaVuSans-Oblique-3c3" d="M 2219 3044
Q 1744 3044 1422 2700
Q 1081 2341 969 1747
Q 844 1119 1044 756
Q 1241 397 1706 397
Q 2166 397 2503 759
Q 2844 1122 2966 1747
Q 3075 2319 2881 2700
Q 2700 3044 2219 3044
z
M 2309 3503
L 4219 3500
L 4106 2925
L 3463 2925
Q 3706 2438 3575 1747
Q 3406 888 2884 400
Q 2359 -91 1609 -91
Q 856 -91 525 400
Q 194 888 363 1747
Q 528 2609 1050 3097
Q 1484 3503 2309 3503
z
" transform="scale(0.015625)"/>
     <path id="DejaVuSans-32" d="M 1228 531
L 3431 531
L 3431 0
L 469 0
L 469 531
Q 828 903 1448 1529
Q 2069 2156 2228 2338
Q 2531 2678 2651 2914
Q 2772 3150 2772 3378
Q 2772 3750 2511 3984
Q 2250 4219 1831 4219
Q 1534 4219 1204 4116
Q 875 4013 500 3803
L 500 4441
Q 881 4594 1212 4672
Q 1544 4750 1819 4750
Q 2544 4750 2975 4387
Q 3406 4025 3406 3419
Q 3406 3131 3298 2873
Q 3191 2616 2906 2266
Q 2828 2175 2409 1742
Q 1991 1309 1228 531
z
" transform="scale(0.015625)"/>
     <path id="DejaVuSans-Oblique-64" d="M 2675 525
Q 2444 222 2128 65
Q 1813 -91 1428 -91
Q 903 -91 598 267
Q 294 625 294 1247
Q 294 1766 478 2236
Q 663 2706 1013 3078
Q 1244 3325 1534 3454
Q 1825 3584 2144 3584
Q 2481 3584 2739 3421
Q 2997 3259 3138 2956
L 3513 4863
L 4091 4863
L 3144 0
L 2566 0
L 2675 525
z
M 891 1350
Q 891 897 1095 644
Q 1300 391 1663 391
Q 1931 391 2161 520
Q 2391 650 2566 903
Q 2750 1166 2856 1509
Q 2963 1853 2963 2188
Q 2963 2622 2758 2865
Q 2553 3109 2194 3109
Q 1922 3109 1687 2981
Q 1453 2853 1288 2613
Q 1106 2353 998 2009
Q 891 1666 891 1350
z
" transform="scale(0.015625)"/>
    </defs>
    <use xlink:href="#DejaVuSans-3d" transform="translate(19.482422 0.96875)"/>
    <use xlink:href="#DejaVuSansDisplay-222b" transform="translate(122.753906 0.96875)"/>
    <use xlink:href="#DejaVuSans-Oblique-70" transform="translate(196.386719 0.96875)"/>
    <use xlink:href="#DejaVuSans-28" transform="translate(259.863281 0.96875)"/>
    <use xlink:href="#DejaVuSans-303" transform="translate(360.90625 4.234375)"/>
    <use xlink:href="#DejaVuSans-Oblique-79" transform="translate(298.876953 0.96875)"/>
    <use xlink:href="#DejaVuSans-2223" transform="translate(377.539062 0.96875)"/>
    <use xlink:href="#DejaVuSans-303" transform="translate(509.050781 4.234375)"/>
    <use xlink:href="#DejaVuSans-Oblique-78" transform="translate(447.021484 0.96875)"/>
    <use xlink:href="#DejaVuSans-2c" transform="translate(506.201172 0.96875)"/>
    <use xlink:href="#DejaVuSans-Oblique-3b2" transform="translate(557.470703 0.96875)"/>
    <use xlink:href="#DejaVuSans-2c" transform="translate(621.289062 0.96875)"/>
    <use xlink:href="#DejaVuSans-Oblique-3c3" transform="translate(672.558594 0.96875)"/>
    <use xlink:href="#DejaVuSans-32" transform="translate(740.410208 39.25) scale(0.7)"/>
    <use xlink:href="#DejaVuSans-29" transform="translate(787.680716 0.96875)"/>
    <use xlink:href="#DejaVuSans-Oblique-70" transform="translate(842.930064 0.96875)"/>
    <use xlink:href="#DejaVuSans-28" transform="translate(906.406627 0.96875)"/>
    <use xlink:href="#DejaVuSans-Oblique-3b2" transform="translate(945.420299 0.96875)"/>
    <use xlink:href="#DejaVuSans-2c" transform="translate(1009.238658 0.96875)"/>
    <use xlink:href="#DejaVuSans-Oblique-3c3" transform="translate(1060.508189 0.96875)"/>
    <use xlink:href="#DejaVuSans-32" transform="translate(1128.359804 39.25) scale(0.7)"/>
    <use xlink:href="#DejaVuSans-2223" transform="translate(1195.112734 0.96875)"/>
    <use xlink:href="#DejaVuSans-Oblique-44" transform="translate(1264.595155 0.96875)"/>
    <use xlink:href="#DejaVuSans-29" transform="translate(1341.597109 0.96875)"/>
    <use xlink:href="#DejaVuSans-Oblique-64" transform="translate(1396.846457 0.96875)"/>
    <use xlink:href="#DejaVuSans-Oblique-3b2" transform="translate(1460.323019 0.96875)"/>
    <use xlink:href="#DejaVuSans-Oblique-64" transform="translate(1540.377055 0.96875)"/>
    <use xlink:href="#DejaVuSans-Oblique-3c3" transform="translate(1603.853617 0.96875)"/>
    <use xlink:href="#DejaVuSans-32" transform="translate(1671.705232 39.25) scale(0.7)"/>
   </g>
  </g>
 </g>
</svg>
